<?xml version="1.0" encoding="utf-8"?>
<!-- Generator: Adobe Illustrator 16.0.0, SVG Export Plug-In . SVG Version: 6.00 Build 0)  -->
<!DOCTYPE svg PUBLIC "-//W3C//DTD SVG 1.1//EN" "http://www.w3.org/Graphics/SVG/1.1/DTD/svg11.dtd">
<svg version="1.1" id="Layer_1" xmlns="http://www.w3.org/2000/svg" xmlns:xlink="http://www.w3.org/1999/xlink" x="0px" y="0px"
	 width="211.68px" height="57.6px" viewBox="0 0 211.68 57.6" enable-background="new 0 0 211.68 57.6" xml:space="preserve">
<path fill="#231F20" d="M64.917,12.583c0.929,0,1.725,0.336,2.388,1.008c0.665,0.672,0.996,1.487,0.996,2.443
	c0,0.945-0.329,1.75-0.986,2.416c-0.657,0.666-1.444,0.998-2.359,0.998c-0.941,0-1.745-0.339-2.408-1.018
	c-0.665-0.68-0.996-1.503-0.996-2.473c0-0.932,0.329-1.727,0.986-2.385C63.197,12.912,63.989,12.583,64.917,12.583z M62.271,24.096
	h5.295v22.066h-5.295V24.096z"/>
<path fill="#231F20" d="M85.292,27.588l-3.278,3.276c-1.332-1.319-2.541-1.979-3.627-1.979c-0.595,0-1.061,0.127-1.396,0.378
	c-0.336,0.253-0.504,0.566-0.504,0.94c0,0.286,0.107,0.547,0.319,0.786c0.214,0.238,0.741,0.566,1.582,0.979l1.94,0.972
	c2.042,1.007,3.446,2.036,4.208,3.083c0.763,1.048,1.144,2.275,1.144,3.686c0,1.875-0.689,3.439-2.065,4.693
	c-1.378,1.254-3.224,1.881-5.537,1.881c-3.079,0-5.536-1.203-7.371-3.606l3.258-3.551c0.621,0.724,1.348,1.309,2.183,1.757
	c0.833,0.444,1.574,0.669,2.22,0.669c0.698,0,1.26-0.167,1.687-0.506c0.427-0.336,0.641-0.725,0.641-1.163
	c0-0.814-0.769-1.611-2.308-2.385l-1.785-0.893c-3.414-1.72-5.12-3.873-5.12-6.459c0-1.666,0.643-3.093,1.93-4.275
	c1.287-1.184,2.931-1.775,4.936-1.775c1.37,0,2.66,0.302,3.869,0.902C83.426,25.6,84.452,26.462,85.292,27.588z"/>
<path fill="#231F20" d="M109.959,28.905l-4.408,2.424c-0.827-0.866-1.646-1.466-2.456-1.803c-0.809-0.336-1.757-0.504-2.846-0.504
	c-1.98,0-3.583,0.591-4.805,1.771c-1.223,1.182-1.835,2.695-1.835,4.543c0,1.793,0.589,3.258,1.767,4.393
	c1.178,1.137,2.725,1.706,4.641,1.706c2.369,0,4.213-0.808,5.534-2.424l4.175,2.858c-2.263,2.944-5.456,4.414-9.58,4.414
	c-3.711,0-6.617-1.099-8.718-3.297c-2.102-2.196-3.151-4.771-3.151-7.72c0-2.043,0.51-3.925,1.532-5.643
	c1.021-1.72,2.447-3.071,4.276-4.053c1.829-0.982,3.876-1.475,6.139-1.475c2.095,0,3.976,0.417,5.644,1.251
	S108.898,27.366,109.959,28.905z"/>
<path fill="#231F20" d="M122.999,24.096c1.993,0,3.864,0.498,5.616,1.494c1.752,0.995,3.121,2.346,4.102,4.054
	c0.984,1.705,1.475,3.546,1.475,5.526c0,1.991-0.493,3.853-1.483,5.586c-0.989,1.731-2.338,3.085-4.043,4.062
	c-1.707,0.977-3.588,1.464-5.645,1.464c-3.026,0-5.607-1.076-7.748-3.229c-2.141-2.154-3.211-4.768-3.211-7.848
	c0-3.295,1.208-6.042,3.628-8.241C117.81,25.052,120.246,24.096,122.999,24.096z M123.088,29.08c-1.645,0-3.015,0.573-4.109,1.716
	c-1.094,1.145-1.642,2.609-1.642,4.395c0,1.836,0.541,3.323,1.624,4.46c1.079,1.14,2.449,1.707,4.108,1.707
	c1.658,0,3.037-0.575,4.138-1.728c1.099-1.148,1.652-2.63,1.652-4.439c0-1.812-0.541-3.282-1.623-4.413S124.771,29.08,123.088,29.08
	z"/>
<path fill="#231F20" d="M137.405,24.639h5.354v10.162c0,1.979,0.135,3.353,0.406,4.124c0.271,0.768,0.71,1.364,1.313,1.791
	c0.601,0.427,1.344,0.642,2.227,0.642c0.881,0,1.629-0.211,2.245-0.632c0.614-0.418,1.07-1.038,1.371-1.85
	c0.22-0.61,0.329-1.908,0.329-3.899V24.639h5.295v8.941c0,3.685-0.291,6.206-0.872,7.562c-0.71,1.656-1.758,2.925-3.143,3.812
	c-1.383,0.886-3.142,1.329-5.274,1.329c-2.313,0-4.186-0.518-5.615-1.551c-1.429-1.034-2.435-2.477-3.017-4.326
	c-0.414-1.28-0.619-3.607-0.619-6.982V24.639z"/>
<path fill="#231F20" d="M159.474,24.639h4.538v2.658c0.49-1.047,1.145-1.842,1.957-2.386c0.815-0.543,1.708-0.814,2.677-0.814
	c0.687,0,1.404,0.181,2.153,0.543l-1.647,4.557c-0.622-0.311-1.132-0.465-1.532-0.465c-0.816,0-1.505,0.506-2.066,1.513
	c-0.562,1.009-0.845,2.987-0.845,5.936l0.021,1.027v8.534h-5.256V24.639z"/>
<path fill="#231F20" d="M185.788,27.588l-3.278,3.276c-1.331-1.319-2.541-1.979-3.627-1.979c-0.595,0-1.061,0.127-1.396,0.378
	c-0.335,0.253-0.504,0.566-0.504,0.94c0,0.286,0.106,0.547,0.32,0.786c0.213,0.238,0.741,0.566,1.58,0.979l1.938,0.972
	c2.044,1.007,3.447,2.036,4.209,3.083c0.764,1.048,1.145,2.275,1.145,3.686c0,1.875-0.688,3.439-2.064,4.693
	c-1.378,1.254-3.223,1.881-5.537,1.881c-3.077,0-5.535-1.203-7.37-3.606l3.258-3.551c0.621,0.724,1.348,1.309,2.182,1.757
	c0.834,0.444,1.574,0.669,2.222,0.669c0.698,0,1.259-0.167,1.688-0.506c0.427-0.336,0.64-0.725,0.64-1.163
	c0-0.814-0.77-1.611-2.309-2.385l-1.784-0.893c-3.413-1.72-5.12-3.873-5.12-6.459c0-1.666,0.645-3.093,1.93-4.275
	c1.286-1.184,2.931-1.775,4.936-1.775c1.37,0,2.661,0.302,3.87,0.902C183.923,25.6,184.947,26.462,185.788,27.588z"/>
<path fill="#231F20" d="M210.94,36.721h-17.01c0.245,1.501,0.902,2.694,1.968,3.579c1.066,0.886,2.429,1.329,4.083,1.329
	c1.979,0,3.678-0.691,5.1-2.077l4.463,2.097c-1.111,1.578-2.445,2.744-3.996,3.5c-1.553,0.757-3.394,1.135-5.529,1.135
	c-3.309,0-6.004-1.044-8.086-3.132c-2.082-2.089-3.122-4.705-3.122-7.845c0-3.221,1.037-5.894,3.111-8.021
	c2.076-2.125,4.678-3.189,7.807-3.189c3.323,0,6.026,1.064,8.107,3.189c2.082,2.128,3.124,4.937,3.124,8.428L210.94,36.721z
	 M205.646,32.552c-0.351-1.178-1.04-2.135-2.07-2.87c-1.03-0.736-2.226-1.106-3.583-1.106c-1.479,0-2.772,0.415-3.887,1.242
	c-0.7,0.518-1.347,1.427-1.942,2.734H205.646z"/>
<path fill="#231F20" d="M29.087,0.432C13.686,0.432,0.72,12.917,0.72,28.318c0,0.499,0.01,28.877,0.01,28.877l28.357-0.03
	c15.402,0,27.888-12.966,27.888-28.365C56.975,13.398,44.489,0.432,29.087,0.432z"/>
<path fill="#F2E88F" d="M29.357,11.225c-9.545,0-17.284,7.739-17.284,17.285c0,2.981,0.755,5.787,2.085,8.237l-3.125,10.064
	l11.232-2.541c2.165,0.975,4.564,1.521,7.092,1.521c9.547,0,17.285-7.736,17.285-17.281C46.642,18.964,38.904,11.225,29.357,11.225z
	"/>
<path fill="#00AEEF" d="M43.076,17.999c2.235,2.914,3.566,6.555,3.566,10.511c0,9.545-7.738,17.281-17.285,17.281
	c-2.527,0-4.927-0.546-7.092-1.521l-11.232,2.541l11.437-1.353c2.05,1.194,4.379,1.992,6.894,2.255
	c9.494,0.999,17.999-5.889,18.997-15.384C48.943,26.781,46.828,21.571,43.076,17.999z"/>
<path fill="#00953A" d="M39.889,14.807c2.527,2.664,4.231,6.149,4.645,10.082c0.998,9.492-5.891,17.996-15.383,18.994
	c-2.515,0.266-4.958-0.027-7.212-0.772l-10.905,3.702l11.232-2.541c2.165,0.975,4.564,1.521,7.092,1.521
	c9.547,0,17.285-7.736,17.285-17.281C46.642,22.929,43.995,17.968,39.889,14.807z"/>
<path fill="#E63C2F" d="M15.194,37.129c-1.067-2.574-1.525-5.445-1.213-8.41c0.999-9.494,9.502-16.381,18.997-15.384
	c3.942,0.415,7.433,2.126,10.098,4.664c-3.16-4.117-8.128-6.774-13.718-6.774c-9.545,0-17.284,7.739-17.284,17.285
	c0,2.981,0.755,5.787,2.085,8.237l-3.125,10.064L15.194,37.129z"/>
<path fill="#D13239" d="M14.159,36.747c-1.33-2.45-2.085-5.256-2.085-8.237c0-9.545,7.739-17.285,17.284-17.285
	c3.965,0,7.614,1.338,10.532,3.582c-3.574-3.763-8.791-5.886-14.352-5.302c-9.494,0.999-16.381,9.503-15.383,18.997
	c0.312,2.966,1.356,5.678,2.936,7.976l-2.056,10.335L14.159,36.747z"/>
</svg>
